<svg xmlns:dc="http://purl.org/dc/elements/1.1/" xmlns:cc="http://creativecommons.org/ns#" xmlns:rdf="http://www.w3.org/1999/02/22-rdf-syntax-ns#" xmlns:svg="http://www.w3.org/2000/svg" xmlns="http://www.w3.org/2000/svg" xmlns:sodipodi="http://sodipodi.sourceforge.net/DTD/sodipodi-0.dtd" xmlns:inkscape="http://www.inkscape.org/namespaces/inkscape" version="1.1" x="0px" y="0px" viewBox="0 0 100 125"><g transform="translate(0,-952.36218)"><path style="text-indent:0;text-transform:none;direction:ltr;block-progression:tb;baseline-shift:baseline;color:#000000;enable-background:accumulate;" d="m 17,958.36218 0,88.00002 66,0 0,-73.40622 c -4.34298,-4.3433 -9.52638,-9.5261 -14.59375,-14.5938 l -51.40625,0 z m 2,2 48,0 0,14 14,0 0,70.00002 -62,0 0,-84.00002 z m 50,1.4375 10.5625,10.5625 -10.5625,0 0,-10.5625 z m -41,12.5625 0,8 8,0 0,-8 -8,0 z m 2,2 4,0 0,4 -4,0 0,-4 z m 15,1 0,2 27,0 0,-2 -27,0 z m -17,13 0,8 8,0 0,-8 -8,0 z m 2,2 4,0 0,4 -4,0 0,-4 z m 15,1 0,2 27,0 0,-2 -27,0 z m -17,13.00002 0,8 8,0 0,-8 -8,0 z m 2,2 4,0 0,4 -4,0 0,-4 z m 15,1 0,2 27,0 0,-2 -27,0 z m -17,13 0,8 8,0 0,-8 -8,0 z m 2,2 4,0 0,4 -4,0 0,-4 z m 15,1 0,2 27,0 0,-2 -27,0 z" fill="#000000" fill-opacity="1" stroke="none" marker="none" visibility="visible" display="inline" overflow="visible"/></g><text x="0" y="115" fill="#000000" font-size="5px" font-weight="bold" font-family="'Helvetica Neue', Helvetica, Arial-Unicode, Arial, Sans-serif">Created by unlimicon</text><text x="0" y="120" fill="#000000" font-size="5px" font-weight="bold" font-family="'Helvetica Neue', Helvetica, Arial-Unicode, Arial, Sans-serif">from the Noun Project</text></svg>