<svg xmlns="http://www.w3.org/2000/svg" xmlns:xlink="http://www.w3.org/1999/xlink" version="1.1" x="0px" y="0px" viewBox="0 0 100 125" enable-background="new 0 0 100 100" xml:space="preserve"><path d="M78.8,15.8H24.4c-6.3,0-11.4,5.1-11.4,11.4v40.4c0,6.3,5.1,11.4,11.4,11.4h42.7l10.4,7.2c0.3,0.2,0.7,0.3,1.1,0.3  c0.3,0,0.6-0.1,0.9-0.2c0.6-0.3,1.1-1,1.1-1.7l0.2-5.7c5.4-0.9,9.5-5.6,9.5-11.3V27.2C90.2,20.9,85.1,15.8,78.8,15.8z M86.3,67.6  c0,4.1-3.3,7.5-7.5,7.5c-1.1,0-1.9,0.8-2,1.9l-0.1,3.9l-7.9-5.4c-0.3-0.2-0.7-0.3-1.1-0.3H24.4c-4.1,0-7.5-3.3-7.5-7.5V27.2  c0-4.1,3.3-7.5,7.5-7.5h54.4c4.1,0,7.5,3.3,7.5,7.5V67.6z"/><path d="M72.3,38.3h-8.3l2.8-8.5c0.4-1.2-0.3-2.5-1.5-2.9c-1.2-0.4-2.5,0.3-2.9,1.5l-3.2,9.9h-9l2.8-8.5c0.4-1.2-0.3-2.5-1.5-2.9  c-1.2-0.4-2.5,0.3-2.9,1.5l-3.2,9.9h-9.8c-1.3,0-2.3,1-2.3,2.3s1,2.3,2.3,2.3h8.3l-3,9.3h-9.8c-1.3,0-2.3,1-2.3,2.3  c0,1.3,1,2.3,2.3,2.3h8.3l-2.8,8.5c-0.4,1.2,0.3,2.5,1.5,2.9c0.2,0.1,0.5,0.1,0.7,0.1c1,0,1.9-0.6,2.2-1.6l3.2-9.9h9l-2.8,8.5  c-0.4,1.2,0.3,2.5,1.5,2.9c0.2,0.1,0.5,0.1,0.7,0.1c1,0,1.9-0.6,2.2-1.6l3.2-9.9h9.8c1.3,0,2.3-1,2.3-2.3c0-1.3-1-2.3-2.3-2.3h-8.3  l3-9.3h9.8c1.3,0,2.3-1,2.3-2.3S73.5,38.3,72.3,38.3z M57.6,42.8l-3,9.3h-9l3-9.3H57.6z"/><text x="0" y="115" fill="#000000" font-size="5px" font-weight="bold" font-family="'Helvetica Neue', Helvetica, Arial-Unicode, Arial, Sans-serif">by Carla Romina Porciúncula Valls</text><text x="0" y="120" fill="#000000" font-size="5px" font-weight="bold" font-family="'Helvetica Neue', Helvetica, Arial-Unicode, Arial, Sans-serif">from the Noun Project</text></svg>