<svg xmlns="http://www.w3.org/2000/svg" data-name="Layer 1" viewBox="0 0 100 125" x="0px" y="0px"><title>Artboard 17</title><path d="M22.58,58.18a29.08,29.08,0,0,0,6.77,11.14,4.26,4.26,0,0,1-2.85,7.25h-.18a4.19,4.19,0,0,1-3-1.24,37.64,37.64,0,0,1-8.86-14.59,4.16,4.16,0,0,1,.37-3.38,4.29,4.29,0,0,1,2.85-2,4.19,4.19,0,0,1,.83-.08A4.28,4.28,0,0,1,22.58,58.18ZM73.7,76.57a4.19,4.19,0,0,0,3-1.24,37.64,37.64,0,0,0,8.86-14.59,4.17,4.17,0,0,0-.37-3.38,4.29,4.29,0,0,0-2.85-2h0a4.18,4.18,0,0,0-.83-.08,4.28,4.28,0,0,0-4.07,3,29.09,29.09,0,0,1-6.77,11.14,4.26,4.26,0,0,0,2.86,7.25ZM43.5,21h0a29.37,29.37,0,0,1,13,0,4.21,4.21,0,0,0,4.93-2.73,4.28,4.28,0,0,0-.29-3.49,4.22,4.22,0,0,0-2.75-2.08,37.83,37.83,0,0,0-16.78,0,4.23,4.23,0,0,0-2.75,2.08A4.26,4.26,0,0,0,43.5,21ZM19.26,47.31H35.68A1.72,1.72,0,0,0,37.4,45.6V39.91a4.84,4.84,0,0,0-.62-2.44,4.47,4.47,0,0,0-2-1.81,21.3,21.3,0,0,0-3.84-1.45l-5-1.32A2.64,2.64,0,0,1,24,30.76V28.89h0v-.63h.12s4.23.13,7.09-1.62a1,1,0,0,0,.08-1.57c-1.09-.9-2.53-3-2.08-7.5.69-7-.87-13.23-6.53-12.71,0,0-2.46-3-7.34-1.1-1.68.64-6.18,2.25-6,12,.14,6.13-1.26,8.44-2.33,9.3a1,1,0,0,0,.08,1.58,12.8,12.8,0,0,0,7.16,1.66h0v.57h0v1.87a2.64,2.64,0,0,1-1.93,2.13l-5,1.32a21.31,21.31,0,0,0-3.84,1.45,4.46,4.46,0,0,0-2,1.81A4.83,4.83,0,0,0,1,39.91V45.6a1.72,1.72,0,0,0,1.72,1.72H19.26ZM96.38,35.66a21.31,21.31,0,0,0-3.84-1.45l-5-1.32a2.64,2.64,0,0,1-1.93-2.13V28.89h0v-.63h.12s4.23.13,7.09-1.62a1,1,0,0,0,.08-1.57c-1.09-.9-2.53-3-2.08-7.5.69-7-.87-13.23-6.53-12.71,0,0-2.46-3-7.34-1.1-1.68.64-6.18,2.25-6,12,.14,6.13-1.26,8.44-2.33,9.3a1,1,0,0,0,.08,1.58,12.8,12.8,0,0,0,7.16,1.66h0v.57h0v1.87A2.64,2.64,0,0,1,74,32.89l-5,1.32a21.3,21.3,0,0,0-3.84,1.45,4.46,4.46,0,0,0-2,1.81,4.83,4.83,0,0,0-.62,2.44V45.6a1.72,1.72,0,0,0,1.72,1.72h33A1.72,1.72,0,0,0,99,45.6V39.91a4.83,4.83,0,0,0-.62-2.44A4.46,4.46,0,0,0,96.38,35.66ZM54.95,77.8s4.23.13,7.09-1.62a1,1,0,0,0,.08-1.57c-1.09-.9-2.53-3-2.08-7.5.7-7-.87-13.23-6.53-12.71,0,0-2.46-3-7.34-1.1-1.68.64-6.18,2.25-6,12,.14,6.13-1.26,8.44-2.33,9.3A1,1,0,0,0,38,76.2a12.8,12.8,0,0,0,7.16,1.65h0v.57h0V80.3a2.64,2.64,0,0,1-1.93,2.13l-5,1.32a21.38,21.38,0,0,0-3.84,1.45,4.47,4.47,0,0,0-2,1.81,4.84,4.84,0,0,0-.62,2.44v5.68a1.72,1.72,0,0,0,1.72,1.72h33a1.72,1.72,0,0,0,1.72-1.72V89.45A4.84,4.84,0,0,0,67.58,87a4.47,4.47,0,0,0-2-1.81,21.42,21.42,0,0,0-3.84-1.45l-5-1.32a2.64,2.64,0,0,1-1.93-2.13V78.42h0V77.8Z"/><text x="0" y="115" fill="#000000" font-size="5px" font-weight="bold" font-family="'Helvetica Neue', Helvetica, Arial-Unicode, Arial, Sans-serif">Created by Gregor Cresnar</text><text x="0" y="120" fill="#000000" font-size="5px" font-weight="bold" font-family="'Helvetica Neue', Helvetica, Arial-Unicode, Arial, Sans-serif">from the Noun Project</text></svg>