<svg xmlns="http://www.w3.org/2000/svg" xmlns:xlink="http://www.w3.org/1999/xlink" version="1.1" x="0px" y="0px" viewBox="0 0 100 125" enable-background="new 0 0 100 100" xml:space="preserve"><path d="M25.7,14.1l-0.9,4.1c-0.7,2.9-0.9,5.8-0.8,8.7c0.2,0.2,0.3,0.3,0.5,0.5c7.4-7.5,17.1-11.2,26.8-11.2c4.9,0,9.8,0.9,14.3,2.8  c-0.7,1.8-1.4,3.6-2.1,5.3c2.5-0.9,5.2-1.5,8.1-1.8c0.7-0.1,1.3-0.1,2-0.1c0.3,0,0.5,0,0.8,0c0.4,0,0.8,0,1.1,0  c2.1,0.1,4.3,0.3,6.5,0.8c-0.4-1.9-1-3.8-1.7-5.7c-0.2-0.5-0.4-0.9-0.5-1.4c-0.2-0.4-0.4-0.9-0.6-1.3c-1.8-4-4.2-7.9-7.2-11.5  c-0.7,1.7-1.4,3.5-2.1,5.2C64,6.2,57.6,5,51.3,5C40.7,5,30.2,8.3,21.4,15c0.1,0,0.1,0,0.2,0L25.7,14.1z"/><path d="M72.8,86.7l0.9-4.1c0.7-2.9,0.9-5.8,0.8-8.7c-0.2-0.2-0.3-0.3-0.5-0.5c-7.4,7.5-17.1,11.2-26.8,11.2  c-4.9,0-9.8-0.9-14.3-2.8c0.7-1.8,1.4-3.6,2.1-5.3c-2.5,0.9-5.2,1.5-8.1,1.8c-0.7,0.1-1.3,0.1-2,0.1c-0.3,0-0.5,0-0.8,0  c-0.4,0-0.8,0-1.1,0c-2.1-0.1-4.3-0.3-6.5-0.8c0.4,1.9,1,3.8,1.7,5.7c0.2,0.5,0.4,0.9,0.5,1.4c0.2,0.4,0.4,0.9,0.6,1.3  c1.8,4,4.2,7.9,7.2,11.5c0.7-1.7,1.4-3.5,2.1-5.2c5.9,2.4,12.3,3.6,18.6,3.6c10.5,0,21.1-3.4,29.9-10.1c-0.1,0-0.1,0-0.2,0  L72.8,86.7z"/><path d="M12.9,74l4.1,0.9c2.4,0.5,4.8,0.8,7.1,0.8c0.5,0,1.1,0,1.6-0.1c0.2-0.2,0.3-0.3,0.5-0.5C15,64,12.3,47.7,17.9,34  c1.8,0.7,3.6,1.4,5.3,2.1c-0.9-2.5-1.5-5.2-1.8-8.1c-0.1-0.7-0.1-1.3-0.1-2c0-0.6,0-1.3,0-1.9c0.1-2.1,0.3-4.3,0.8-6.6  c-1.9,0.4-3.8,1-5.7,1.7c-0.5,0.2-0.9,0.4-1.4,0.5c-0.4,0.2-0.9,0.4-1.3,0.6c-4,1.8-7.9,4.2-11.5,7.2C4,28.3,5.7,29,7.5,29.7  C1,45.6,3.2,64.1,13.9,78.3c0-0.1,0-0.1,0-0.2L12.9,74z"/><path d="M91,71.1c6.5-15.8,4.3-34.4-6.4-48.5c0,0.1,0,0.1,0,0.2l0.9,4.1l-4.1-0.9c-2.4-0.5-4.8-0.8-7.1-0.8c-0.5,0-1.1,0-1.6,0.1  c-0.2,0.2-0.3,0.3-0.5,0.5c11.2,11.1,14,27.5,8.4,41.1c-1.8-0.7-3.6-1.4-5.3-2.1c0.9,2.5,1.5,5.2,1.8,8.1c0.1,0.7,0.1,1.3,0.1,2  c0,0.6,0,1.3,0,1.9c-0.1,2.1-0.3,4.3-0.8,6.6c1.9-0.4,3.8-1,5.7-1.7c0.5-0.2,0.9-0.4,1.4-0.5c0.4-0.2,0.9-0.4,1.3-0.6  c4-1.8,7.9-4.2,11.5-7.2C94.5,72.5,92.8,71.8,91,71.1z"/><text x="0" y="115" fill="#000000" font-size="5px" font-weight="bold" font-family="'Helvetica Neue', Helvetica, Arial-Unicode, Arial, Sans-serif">Created by Justin Blake</text><text x="0" y="120" fill="#000000" font-size="5px" font-weight="bold" font-family="'Helvetica Neue', Helvetica, Arial-Unicode, Arial, Sans-serif">from the Noun Project</text></svg>